
<svg width="32" height="32" viewBox="0 0 32 32" xmlns="http://www.w3.org/2000/svg">
  <defs>
    <linearGradient id="heartGradient" x1="0%" y1="0%" x2="100%" y2="100%">
      <stop offset="0%" style="stop-color:#ff6b6b;stop-opacity:1" />
      <stop offset="100%" style="stop-color:#ee5a24;stop-opacity:1" />
    </linearGradient>
  </defs>
  
  <!-- Background circle -->
  <circle cx="16" cy="16" r="15" fill="#ffffff" stroke="#e0e0e0" stroke-width="1"/>
  
  <!-- Heart shape -->
  <path d="M16 26c-0.5 0-1-0.2-1.4-0.6L9.8 20.6C7.6 18.4 7.6 14.8 9.8 12.6c2.2-2.2 5.8-2.2 8 0l0.2 0.2 0.2-0.2c2.2-2.2 5.8-2.2 8 0 2.2 2.2 2.2 5.8 0 8L21.4 25.4C21 25.8 20.5 26 16 26z" fill="url(#heartGradient)"/>
  
  <!-- Share arrows -->
  <g transform="translate(22, 8) scale(0.6)">
    <path d="M12 2L8 6h3v6h2V6h3l-4-4z" fill="#4a90e2"/>
    <path d="M2 12L6 8v3h6v2H6v3l-4-4z" fill="#4a90e2"/>
  </g>
</svg>
